<?xml version="1.0" encoding="utf-8" standalone="no"?>
<!DOCTYPE svg PUBLIC "-//W3C//DTD SVG 1.1//EN"
  "http://www.w3.org/Graphics/SVG/1.1/DTD/svg11.dtd">
<!-- Created with matplotlib (https://matplotlib.org/) -->
<svg height="432pt" version="1.1" viewBox="0 0 576 432" width="576pt" xmlns="http://www.w3.org/2000/svg" xmlns:xlink="http://www.w3.org/1999/xlink">
 <metadata>
  <rdf:RDF xmlns:cc="http://creativecommons.org/ns#" xmlns:dc="http://purl.org/dc/elements/1.1/" xmlns:rdf="http://www.w3.org/1999/02/22-rdf-syntax-ns#">
   <cc:Work>
    <dc:type rdf:resource="http://purl.org/dc/dcmitype/StillImage"/>
    <dc:date>2020-10-14T02:11:37.411613</dc:date>
    <dc:format>image/svg+xml</dc:format>
    <dc:creator>
     <cc:Agent>
      <dc:title>Matplotlib v3.3.2, https://matplotlib.org/</dc:title>
     </cc:Agent>
    </dc:creator>
   </cc:Work>
  </rdf:RDF>
 </metadata>
 <defs>
  <style type="text/css">*{stroke-linecap:butt;stroke-linejoin:round;}</style>
 </defs>
 <g id="figure_1">
  <g id="patch_1">
   <path d="M 0 432 
L 576 432 
L 576 0 
L 0 0 
z
" style="fill:none;"/>
  </g>
  <g id="axes_1">
   <g id="patch_2">
    <path d="M 78.315 360.06 
L 551.3725 360.06 
L 551.3725 39.44 
L 78.315 39.44 
z
" style="fill:#ffffff;"/>
   </g>
   <g id="PolyCollection_1">
    <defs>
     <path d="M 78.315 -177.801744 
L 78.315 -159.305704 
L 91.830929 -170.927559 
L 105.346857 -184.537033 
L 118.862786 -199.432125 
L 132.378714 -215.572323 
L 145.894643 -232.25 
L 159.410571 -244.697908 
L 172.9265 -253.699628 
L 186.442429 -259.223687 
L 199.958357 -261.455937 
L 213.474286 -263.323985 
L 226.990214 -264.047995 
L 240.506143 -259.608102 
L 254.022071 -253.865269 
L 267.538 -244.863425 
L 281.053929 -232.572554 
L 294.569857 -220.693828 
L 308.085786 -208.585025 
L 321.601714 -191.140731 
L 335.117643 -177.183529 
L 348.633571 -165.613494 
L 362.1495 -155.306738 
L 375.665429 -149.03366 
L 389.181357 -142.972083 
L 402.697286 -141.833221 
L 416.213214 -141.153573 
L 429.729143 -143.954653 
L 443.245071 -149.828825 
L 456.761 -157.154736 
L 470.276929 -168.264825 
L 483.792857 -180.875554 
L 497.308786 -194.490318 
L 510.824714 -209.528044 
L 524.340643 -223.814112 
L 537.856571 -236.351767 
L 537.856571 -243.231477 
L 537.856571 -243.231477 
L 524.340643 -229.469015 
L 510.824714 -215.895959 
L 497.308786 -202.28741 
L 483.792857 -189.243317 
L 470.276929 -178.177013 
L 456.761 -169.014334 
L 443.245071 -162.642094 
L 429.729143 -157.632295 
L 416.213214 -155.444175 
L 402.697286 -156.574955 
L 389.181357 -159.992371 
L 375.665429 -166.489306 
L 362.1495 -172.934171 
L 348.633571 -184.556161 
L 335.117643 -197.891043 
L 321.601714 -212.167392 
L 308.085786 -229.175672 
L 294.569857 -243.083608 
L 281.053929 -255.438484 
L 267.538 -265.812924 
L 254.022071 -273.671334 
L 240.506143 -278.908402 
L 226.990214 -280.876777 
L 213.474286 -278.669685 
L 199.958357 -274.618983 
L 186.442429 -269.421255 
L 172.9265 -261.11246 
L 159.410571 -248.151242 
L 145.894643 -232.25 
L 132.378714 -219.551785 
L 118.862786 -207.590679 
L 105.346857 -200.312685 
L 91.830929 -189.291192 
L 78.315 -177.801744 
z
" id="m661f5ce876" style="stroke:#b22222;stroke-opacity:0.2;stroke-width:1.5;"/>
    </defs>
    <g clip-path="url(#p4f4493ad29)">
     <use style="fill:#b22222;fill-opacity:0.2;stroke:#b22222;stroke-opacity:0.2;stroke-width:1.5;" x="0" xlink:href="#m661f5ce876" y="432"/>
    </g>
   </g>
   <g id="PolyCollection_2">
    <defs>
     <path d="M 78.315 -178.340605 
L 78.315 -164.463727 
L 91.830929 -174.646188 
L 105.346857 -186.440431 
L 118.862786 -200.732724 
L 132.378714 -216.745453 
L 145.894643 -232.25 
L 159.410571 -242.475561 
L 172.9265 -251.261848 
L 186.442429 -258.384648 
L 199.958357 -261.536661 
L 213.474286 -264.925811 
L 226.990214 -264.854559 
L 240.506143 -262.459178 
L 254.022071 -256.652674 
L 267.538 -249.759815 
L 281.053929 -239.218083 
L 294.569857 -223.813999 
L 308.085786 -206.433442 
L 321.601714 -191.394932 
L 335.117643 -176.002407 
L 348.633571 -163.341833 
L 362.1495 -153.923786 
L 375.665429 -145.061317 
L 389.181357 -140.153435 
L 402.697286 -137.623939 
L 416.213214 -140.691511 
L 429.729143 -144.492169 
L 443.245071 -150.883179 
L 456.761 -159.846144 
L 470.276929 -171.058836 
L 483.792857 -184.477257 
L 497.308786 -199.389509 
L 510.824714 -212.749506 
L 524.340643 -227.057109 
L 537.856571 -238.897634 
L 537.856571 -247.545365 
L 537.856571 -247.545365 
L 524.340643 -235.65868 
L 510.824714 -223.057091 
L 497.308786 -209.936064 
L 483.792857 -196.730492 
L 470.276929 -186.164769 
L 456.761 -174.334832 
L 443.245071 -165.163935 
L 429.729143 -158.135387 
L 416.213214 -154.661426 
L 402.697286 -152.264546 
L 389.181357 -154.919775 
L 375.665429 -161.717051 
L 362.1495 -169.885691 
L 348.633571 -180.366526 
L 335.117643 -192.501386 
L 321.601714 -209.261711 
L 308.085786 -224.91852 
L 294.569857 -241.657698 
L 281.053929 -256.059908 
L 267.538 -266.119705 
L 254.022071 -272.684083 
L 240.506143 -278.426942 
L 226.990214 -279.777062 
L 213.474286 -278.266156 
L 199.958357 -272.661292 
L 186.442429 -265.884516 
L 172.9265 -257.138414 
L 159.410571 -245.798655 
L 145.894643 -232.25 
L 132.378714 -221.173997 
L 118.862786 -211.193772 
L 105.346857 -200.363674 
L 91.830929 -189.20086 
L 78.315 -178.340605 
z
" id="md9b4d37566" style="stroke:#b22222;stroke-opacity:0.2;stroke-width:1.5;"/>
    </defs>
    <g clip-path="url(#p4f4493ad29)">
     <use style="fill:#b22222;fill-opacity:0.2;stroke:#b22222;stroke-opacity:0.2;stroke-width:1.5;" x="0" xlink:href="#md9b4d37566" y="432"/>
    </g>
   </g>
   <g id="PolyCollection_3">
    <defs>
     <path d="M 78.315 -164.362005 
L 78.315 -150.857068 
L 91.830929 -165.8268 
L 105.346857 -182.257768 
L 118.862786 -198.887428 
L 132.378714 -215.122194 
L 145.894643 -232.25 
L 159.410571 -244.682797 
L 172.9265 -254.249733 
L 186.442429 -263.35131 
L 199.958357 -269.438964 
L 213.474286 -271.51251 
L 226.990214 -270.006597 
L 240.506143 -267.682842 
L 254.022071 -262.73983 
L 267.538 -254.396342 
L 281.053929 -243.463717 
L 294.569857 -231.191032 
L 308.085786 -214.154254 
L 321.601714 -197.336212 
L 335.117643 -180.064183 
L 348.633571 -165.771411 
L 362.1495 -154.812601 
L 375.665429 -145.433688 
L 389.181357 -140.389719 
L 402.697286 -135.006551 
L 416.213214 -135.414496 
L 429.729143 -138.025644 
L 443.245071 -143.094798 
L 456.761 -153.984432 
L 470.276929 -168.368481 
L 483.792857 -180.943628 
L 497.308786 -193.949488 
L 510.824714 -207.622824 
L 524.340643 -221.338539 
L 537.856571 -234.898479 
L 537.856571 -244.174375 
L 537.856571 -244.174375 
L 524.340643 -230.165653 
L 510.824714 -216.142296 
L 497.308786 -204.369423 
L 483.792857 -192.427428 
L 470.276929 -179.959426 
L 456.761 -167.579108 
L 443.245071 -158.055645 
L 429.729143 -152.718137 
L 416.213214 -152.152352 
L 402.697286 -154.139682 
L 389.181357 -160.418615 
L 375.665429 -167.753855 
L 362.1495 -178.0672 
L 348.633571 -189.987155 
L 335.117643 -204.041769 
L 321.601714 -220.917302 
L 308.085786 -238.780238 
L 294.569857 -254.348328 
L 281.053929 -266.469753 
L 267.538 -275.939963 
L 254.022071 -281.737538 
L 240.506143 -285.13071 
L 226.990214 -286.90251 
L 213.474286 -285.560061 
L 199.958357 -280.623908 
L 186.442429 -271.814587 
L 172.9265 -260.239615 
L 159.410571 -248.19534 
L 145.894643 -232.25 
L 132.378714 -219.11841 
L 118.862786 -206.187452 
L 105.346857 -192.617501 
L 91.830929 -177.119103 
L 78.315 -164.362005 
z
" id="m5e9d5e76cc" style="stroke:#4682b4;stroke-opacity:0.2;stroke-width:1.5;"/>
    </defs>
    <g clip-path="url(#p4f4493ad29)">
     <use style="fill:#4682b4;fill-opacity:0.2;stroke:#4682b4;stroke-opacity:0.2;stroke-width:1.5;" x="0" xlink:href="#m5e9d5e76cc" y="432"/>
    </g>
   </g>
   <g id="PolyCollection_4">
    <defs>
     <path d="M 78.315 -168.904175 
L 78.315 -156.41805 
L 91.830929 -169.752505 
L 105.346857 -183.480739 
L 118.862786 -200.181377 
L 132.378714 -216.401781 
L 145.894643 -232.25 
L 159.410571 -244.077985 
L 172.9265 -253.735253 
L 186.442429 -259.124008 
L 199.958357 -262.55795 
L 213.474286 -268.149114 
L 226.990214 -270.26554 
L 240.506143 -269.530768 
L 254.022071 -267.50423 
L 267.538 -259.424174 
L 281.053929 -246.592593 
L 294.569857 -230.538406 
L 308.085786 -213.537913 
L 321.601714 -197.819855 
L 335.117643 -182.253539 
L 348.633571 -167.17826 
L 362.1495 -154.369121 
L 375.665429 -144.888105 
L 389.181357 -137.892397 
L 402.697286 -133.254485 
L 416.213214 -134.308357 
L 429.729143 -138.427447 
L 443.245071 -144.623127 
L 456.761 -153.506546 
L 470.276929 -163.49535 
L 483.792857 -176.94735 
L 497.308786 -191.774551 
L 510.824714 -206.925474 
L 524.340643 -220.61935 
L 537.856571 -232.649602 
L 537.856571 -239.748423 
L 537.856571 -239.748423 
L 524.340643 -229.057202 
L 510.824714 -219.576092 
L 497.308786 -204.813409 
L 483.792857 -189.866062 
L 470.276929 -177.207523 
L 456.761 -167.525829 
L 443.245071 -160.954266 
L 429.729143 -156.057551 
L 416.213214 -152.11144 
L 402.697286 -151.023461 
L 389.181357 -155.460985 
L 375.665429 -163.018959 
L 362.1495 -174.767297 
L 348.633571 -188.147528 
L 335.117643 -205.461297 
L 321.601714 -220.957089 
L 308.085786 -237.257558 
L 294.569857 -253.075724 
L 281.053929 -267.849841 
L 267.538 -279.129986 
L 254.022071 -285.511612 
L 240.506143 -286.800457 
L 226.990214 -284.949821 
L 213.474286 -281.10275 
L 199.958357 -274.220429 
L 186.442429 -267.504229 
L 172.9265 -259.443347 
L 159.410571 -247.417698 
L 145.894643 -232.25 
L 132.378714 -219.433409 
L 118.862786 -207.845632 
L 105.346857 -193.857592 
L 91.830929 -181.919013 
L 78.315 -168.904175 
z
" id="m0ec338e133" style="stroke:#4682b4;stroke-opacity:0.2;stroke-width:1.5;"/>
    </defs>
    <g clip-path="url(#p4f4493ad29)">
     <use style="fill:#4682b4;fill-opacity:0.2;stroke:#4682b4;stroke-opacity:0.2;stroke-width:1.5;" x="0" xlink:href="#m0ec338e133" y="432"/>
    </g>
   </g>
   <g id="matplotlib.axis_1">
    <g id="xtick_1">
     <g id="line2d_1">
      <defs>
       <path d="M 0 0 
L 0 9 
" id="m8920723715" style="stroke:#000000;stroke-width:1.875;"/>
      </defs>
      <g>
       <use style="stroke:#000000;stroke-width:1.875;" x="78.315" xlink:href="#m8920723715" y="360.06"/>
      </g>
     </g>
     <g id="text_1">
      <!-- −1 -->
      <g transform="translate(66.152695 385.097422)scale(0.165 -0.165)">
       <defs>
        <path d="M 10.59375 35.5 
L 73.1875 35.5 
L 73.1875 27.203125 
L 10.59375 27.203125 
z
" id="DejaVuSans-8722"/>
        <path d="M 12.40625 8.296875 
L 28.515625 8.296875 
L 28.515625 63.921875 
L 10.984375 60.40625 
L 10.984375 69.390625 
L 28.421875 72.90625 
L 38.28125 72.90625 
L 38.28125 8.296875 
L 54.390625 8.296875 
L 54.390625 0 
L 12.40625 0 
z
" id="DejaVuSans-49"/>
       </defs>
       <use xlink:href="#DejaVuSans-8722"/>
       <use x="83.789062" xlink:href="#DejaVuSans-49"/>
      </g>
     </g>
    </g>
    <g id="xtick_2">
     <g id="line2d_2">
      <g>
       <use style="stroke:#000000;stroke-width:1.875;" x="145.894643" xlink:href="#m8920723715" y="360.06"/>
      </g>
     </g>
     <g id="text_2">
      <!-- 0 -->
      <g transform="translate(140.64558 385.097422)scale(0.165 -0.165)">
       <defs>
        <path d="M 31.78125 66.40625 
Q 24.171875 66.40625 20.328125 58.90625 
Q 16.5 51.421875 16.5 36.375 
Q 16.5 21.390625 20.328125 13.890625 
Q 24.171875 6.390625 31.78125 6.390625 
Q 39.453125 6.390625 43.28125 13.890625 
Q 47.125 21.390625 47.125 36.375 
Q 47.125 51.421875 43.28125 58.90625 
Q 39.453125 66.40625 31.78125 66.40625 
z
M 31.78125 74.21875 
Q 44.046875 74.21875 50.515625 64.515625 
Q 56.984375 54.828125 56.984375 36.375 
Q 56.984375 17.96875 50.515625 8.265625 
Q 44.046875 -1.421875 31.78125 -1.421875 
Q 19.53125 -1.421875 13.0625 8.265625 
Q 6.59375 17.96875 6.59375 36.375 
Q 6.59375 54.828125 13.0625 64.515625 
Q 19.53125 74.21875 31.78125 74.21875 
z
" id="DejaVuSans-48"/>
       </defs>
       <use xlink:href="#DejaVuSans-48"/>
      </g>
     </g>
    </g>
    <g id="xtick_3">
     <g id="line2d_3">
      <g>
       <use style="stroke:#000000;stroke-width:1.875;" x="213.474286" xlink:href="#m8920723715" y="360.06"/>
      </g>
     </g>
     <g id="text_3">
      <!-- 1 -->
      <g transform="translate(208.225223 385.097422)scale(0.165 -0.165)">
       <use xlink:href="#DejaVuSans-49"/>
      </g>
     </g>
    </g>
    <g id="xtick_4">
     <g id="line2d_4">
      <g>
       <use style="stroke:#000000;stroke-width:1.875;" x="281.053929" xlink:href="#m8920723715" y="360.06"/>
      </g>
     </g>
     <g id="text_4">
      <!-- 2 -->
      <g transform="translate(275.804866 385.097422)scale(0.165 -0.165)">
       <defs>
        <path d="M 19.1875 8.296875 
L 53.609375 8.296875 
L 53.609375 0 
L 7.328125 0 
L 7.328125 8.296875 
Q 12.9375 14.109375 22.625 23.890625 
Q 32.328125 33.6875 34.8125 36.53125 
Q 39.546875 41.84375 41.421875 45.53125 
Q 43.3125 49.21875 43.3125 52.78125 
Q 43.3125 58.59375 39.234375 62.25 
Q 35.15625 65.921875 28.609375 65.921875 
Q 23.96875 65.921875 18.8125 64.3125 
Q 13.671875 62.703125 7.8125 59.421875 
L 7.8125 69.390625 
Q 13.765625 71.78125 18.9375 73 
Q 24.125 74.21875 28.421875 74.21875 
Q 39.75 74.21875 46.484375 68.546875 
Q 53.21875 62.890625 53.21875 53.421875 
Q 53.21875 48.921875 51.53125 44.890625 
Q 49.859375 40.875 45.40625 35.40625 
Q 44.1875 33.984375 37.640625 27.21875 
Q 31.109375 20.453125 19.1875 8.296875 
z
" id="DejaVuSans-50"/>
       </defs>
       <use xlink:href="#DejaVuSans-50"/>
      </g>
     </g>
    </g>
    <g id="xtick_5">
     <g id="line2d_5">
      <g>
       <use style="stroke:#000000;stroke-width:1.875;" x="348.633571" xlink:href="#m8920723715" y="360.06"/>
      </g>
     </g>
     <g id="text_5">
      <!-- 3 -->
      <g transform="translate(343.384509 385.097422)scale(0.165 -0.165)">
       <defs>
        <path d="M 40.578125 39.3125 
Q 47.65625 37.796875 51.625 33 
Q 55.609375 28.21875 55.609375 21.1875 
Q 55.609375 10.40625 48.1875 4.484375 
Q 40.765625 -1.421875 27.09375 -1.421875 
Q 22.515625 -1.421875 17.65625 -0.515625 
Q 12.796875 0.390625 7.625 2.203125 
L 7.625 11.71875 
Q 11.71875 9.328125 16.59375 8.109375 
Q 21.484375 6.890625 26.8125 6.890625 
Q 36.078125 6.890625 40.9375 10.546875 
Q 45.796875 14.203125 45.796875 21.1875 
Q 45.796875 27.640625 41.28125 31.265625 
Q 36.765625 34.90625 28.71875 34.90625 
L 20.21875 34.90625 
L 20.21875 43.015625 
L 29.109375 43.015625 
Q 36.375 43.015625 40.234375 45.921875 
Q 44.09375 48.828125 44.09375 54.296875 
Q 44.09375 59.90625 40.109375 62.90625 
Q 36.140625 65.921875 28.71875 65.921875 
Q 24.65625 65.921875 20.015625 65.03125 
Q 15.375 64.15625 9.8125 62.3125 
L 9.8125 71.09375 
Q 15.4375 72.65625 20.34375 73.4375 
Q 25.25 74.21875 29.59375 74.21875 
Q 40.828125 74.21875 47.359375 69.109375 
Q 53.90625 64.015625 53.90625 55.328125 
Q 53.90625 49.265625 50.4375 45.09375 
Q 46.96875 40.921875 40.578125 39.3125 
z
" id="DejaVuSans-51"/>
       </defs>
       <use xlink:href="#DejaVuSans-51"/>
      </g>
     </g>
    </g>
    <g id="xtick_6">
     <g id="line2d_6">
      <g>
       <use style="stroke:#000000;stroke-width:1.875;" x="416.213214" xlink:href="#m8920723715" y="360.06"/>
      </g>
     </g>
     <g id="text_6">
      <!-- 4 -->
      <g transform="translate(410.964152 385.097422)scale(0.165 -0.165)">
       <defs>
        <path d="M 37.796875 64.3125 
L 12.890625 25.390625 
L 37.796875 25.390625 
z
M 35.203125 72.90625 
L 47.609375 72.90625 
L 47.609375 25.390625 
L 58.015625 25.390625 
L 58.015625 17.1875 
L 47.609375 17.1875 
L 47.609375 0 
L 37.796875 0 
L 37.796875 17.1875 
L 4.890625 17.1875 
L 4.890625 26.703125 
z
" id="DejaVuSans-52"/>
       </defs>
       <use xlink:href="#DejaVuSans-52"/>
      </g>
     </g>
    </g>
    <g id="xtick_7">
     <g id="line2d_7">
      <g>
       <use style="stroke:#000000;stroke-width:1.875;" x="483.792857" xlink:href="#m8920723715" y="360.06"/>
      </g>
     </g>
     <g id="text_7">
      <!-- 5 -->
      <g transform="translate(478.543795 385.097422)scale(0.165 -0.165)">
       <defs>
        <path d="M 10.796875 72.90625 
L 49.515625 72.90625 
L 49.515625 64.59375 
L 19.828125 64.59375 
L 19.828125 46.734375 
Q 21.96875 47.46875 24.109375 47.828125 
Q 26.265625 48.1875 28.421875 48.1875 
Q 40.625 48.1875 47.75 41.5 
Q 54.890625 34.8125 54.890625 23.390625 
Q 54.890625 11.625 47.5625 5.09375 
Q 40.234375 -1.421875 26.90625 -1.421875 
Q 22.3125 -1.421875 17.546875 -0.640625 
Q 12.796875 0.140625 7.71875 1.703125 
L 7.71875 11.625 
Q 12.109375 9.234375 16.796875 8.0625 
Q 21.484375 6.890625 26.703125 6.890625 
Q 35.15625 6.890625 40.078125 11.328125 
Q 45.015625 15.765625 45.015625 23.390625 
Q 45.015625 31 40.078125 35.4375 
Q 35.15625 39.890625 26.703125 39.890625 
Q 22.75 39.890625 18.8125 39.015625 
Q 14.890625 38.140625 10.796875 36.28125 
z
" id="DejaVuSans-53"/>
       </defs>
       <use xlink:href="#DejaVuSans-53"/>
      </g>
     </g>
    </g>
    <g id="xtick_8">
     <g id="line2d_8">
      <g>
       <use style="stroke:#000000;stroke-width:1.875;" x="551.3725" xlink:href="#m8920723715" y="360.06"/>
      </g>
     </g>
     <g id="text_8">
      <!-- 6 -->
      <g transform="translate(546.123437 385.097422)scale(0.165 -0.165)">
       <defs>
        <path d="M 33.015625 40.375 
Q 26.375 40.375 22.484375 35.828125 
Q 18.609375 31.296875 18.609375 23.390625 
Q 18.609375 15.53125 22.484375 10.953125 
Q 26.375 6.390625 33.015625 6.390625 
Q 39.65625 6.390625 43.53125 10.953125 
Q 47.40625 15.53125 47.40625 23.390625 
Q 47.40625 31.296875 43.53125 35.828125 
Q 39.65625 40.375 33.015625 40.375 
z
M 52.59375 71.296875 
L 52.59375 62.3125 
Q 48.875 64.0625 45.09375 64.984375 
Q 41.3125 65.921875 37.59375 65.921875 
Q 27.828125 65.921875 22.671875 59.328125 
Q 17.53125 52.734375 16.796875 39.40625 
Q 19.671875 43.65625 24.015625 45.921875 
Q 28.375 48.1875 33.59375 48.1875 
Q 44.578125 48.1875 50.953125 41.515625 
Q 57.328125 34.859375 57.328125 23.390625 
Q 57.328125 12.15625 50.6875 5.359375 
Q 44.046875 -1.421875 33.015625 -1.421875 
Q 20.359375 -1.421875 13.671875 8.265625 
Q 6.984375 17.96875 6.984375 36.375 
Q 6.984375 53.65625 15.1875 63.9375 
Q 23.390625 74.21875 37.203125 74.21875 
Q 40.921875 74.21875 44.703125 73.484375 
Q 48.484375 72.75 52.59375 71.296875 
z
" id="DejaVuSans-54"/>
       </defs>
       <use xlink:href="#DejaVuSans-54"/>
      </g>
     </g>
    </g>
    <g id="text_9">
     <!-- Time (s) -->
     <g transform="translate(278.251719 406.206094)scale(0.18 -0.18)">
      <defs>
       <path d="M -0.296875 72.90625 
L 61.375 72.90625 
L 61.375 64.59375 
L 35.5 64.59375 
L 35.5 0 
L 25.59375 0 
L 25.59375 64.59375 
L -0.296875 64.59375 
z
" id="DejaVuSans-84"/>
       <path d="M 9.421875 54.6875 
L 18.40625 54.6875 
L 18.40625 0 
L 9.421875 0 
z
M 9.421875 75.984375 
L 18.40625 75.984375 
L 18.40625 64.59375 
L 9.421875 64.59375 
z
" id="DejaVuSans-105"/>
       <path d="M 52 44.1875 
Q 55.375 50.25 60.0625 53.125 
Q 64.75 56 71.09375 56 
Q 79.640625 56 84.28125 50.015625 
Q 88.921875 44.046875 88.921875 33.015625 
L 88.921875 0 
L 79.890625 0 
L 79.890625 32.71875 
Q 79.890625 40.578125 77.09375 44.375 
Q 74.3125 48.1875 68.609375 48.1875 
Q 61.625 48.1875 57.5625 43.546875 
Q 53.515625 38.921875 53.515625 30.90625 
L 53.515625 0 
L 44.484375 0 
L 44.484375 32.71875 
Q 44.484375 40.625 41.703125 44.40625 
Q 38.921875 48.1875 33.109375 48.1875 
Q 26.21875 48.1875 22.15625 43.53125 
Q 18.109375 38.875 18.109375 30.90625 
L 18.109375 0 
L 9.078125 0 
L 9.078125 54.6875 
L 18.109375 54.6875 
L 18.109375 46.1875 
Q 21.1875 51.21875 25.484375 53.609375 
Q 29.78125 56 35.6875 56 
Q 41.65625 56 45.828125 52.96875 
Q 50 49.953125 52 44.1875 
z
" id="DejaVuSans-109"/>
       <path d="M 56.203125 29.59375 
L 56.203125 25.203125 
L 14.890625 25.203125 
Q 15.484375 15.921875 20.484375 11.0625 
Q 25.484375 6.203125 34.421875 6.203125 
Q 39.59375 6.203125 44.453125 7.46875 
Q 49.3125 8.734375 54.109375 11.28125 
L 54.109375 2.78125 
Q 49.265625 0.734375 44.1875 -0.34375 
Q 39.109375 -1.421875 33.890625 -1.421875 
Q 20.796875 -1.421875 13.15625 6.1875 
Q 5.515625 13.8125 5.515625 26.8125 
Q 5.515625 40.234375 12.765625 48.109375 
Q 20.015625 56 32.328125 56 
Q 43.359375 56 49.78125 48.890625 
Q 56.203125 41.796875 56.203125 29.59375 
z
M 47.21875 32.234375 
Q 47.125 39.59375 43.09375 43.984375 
Q 39.0625 48.390625 32.421875 48.390625 
Q 24.90625 48.390625 20.390625 44.140625 
Q 15.875 39.890625 15.1875 32.171875 
z
" id="DejaVuSans-101"/>
       <path id="DejaVuSans-32"/>
       <path d="M 31 75.875 
Q 24.46875 64.65625 21.28125 53.65625 
Q 18.109375 42.671875 18.109375 31.390625 
Q 18.109375 20.125 21.3125 9.0625 
Q 24.515625 -2 31 -13.1875 
L 23.1875 -13.1875 
Q 15.875 -1.703125 12.234375 9.375 
Q 8.59375 20.453125 8.59375 31.390625 
Q 8.59375 42.28125 12.203125 53.3125 
Q 15.828125 64.359375 23.1875 75.875 
z
" id="DejaVuSans-40"/>
       <path d="M 44.28125 53.078125 
L 44.28125 44.578125 
Q 40.484375 46.53125 36.375 47.5 
Q 32.28125 48.484375 27.875 48.484375 
Q 21.1875 48.484375 17.84375 46.4375 
Q 14.5 44.390625 14.5 40.28125 
Q 14.5 37.15625 16.890625 35.375 
Q 19.28125 33.59375 26.515625 31.984375 
L 29.59375 31.296875 
Q 39.15625 29.25 43.1875 25.515625 
Q 47.21875 21.78125 47.21875 15.09375 
Q 47.21875 7.46875 41.1875 3.015625 
Q 35.15625 -1.421875 24.609375 -1.421875 
Q 20.21875 -1.421875 15.453125 -0.5625 
Q 10.6875 0.296875 5.421875 2 
L 5.421875 11.28125 
Q 10.40625 8.6875 15.234375 7.390625 
Q 20.0625 6.109375 24.8125 6.109375 
Q 31.15625 6.109375 34.5625 8.28125 
Q 37.984375 10.453125 37.984375 14.40625 
Q 37.984375 18.0625 35.515625 20.015625 
Q 33.0625 21.96875 24.703125 23.78125 
L 21.578125 24.515625 
Q 13.234375 26.265625 9.515625 29.90625 
Q 5.8125 33.546875 5.8125 39.890625 
Q 5.8125 47.609375 11.28125 51.796875 
Q 16.75 56 26.8125 56 
Q 31.78125 56 36.171875 55.265625 
Q 40.578125 54.546875 44.28125 53.078125 
z
" id="DejaVuSans-115"/>
       <path d="M 8.015625 75.875 
L 15.828125 75.875 
Q 23.140625 64.359375 26.78125 53.3125 
Q 30.421875 42.28125 30.421875 31.390625 
Q 30.421875 20.453125 26.78125 9.375 
Q 23.140625 -1.703125 15.828125 -13.1875 
L 8.015625 -13.1875 
Q 14.5 -2 17.703125 9.0625 
Q 20.90625 20.125 20.90625 31.390625 
Q 20.90625 42.671875 17.703125 53.65625 
Q 14.5 64.65625 8.015625 75.875 
z
" id="DejaVuSans-41"/>
      </defs>
      <use xlink:href="#DejaVuSans-84"/>
      <use x="57.958984" xlink:href="#DejaVuSans-105"/>
      <use x="85.742188" xlink:href="#DejaVuSans-109"/>
      <use x="183.154297" xlink:href="#DejaVuSans-101"/>
      <use x="244.677734" xlink:href="#DejaVuSans-32"/>
      <use x="276.464844" xlink:href="#DejaVuSans-40"/>
      <use x="315.478516" xlink:href="#DejaVuSans-115"/>
      <use x="367.578125" xlink:href="#DejaVuSans-41"/>
     </g>
    </g>
   </g>
   <g id="matplotlib.axis_2">
    <g id="ytick_1">
     <g id="line2d_9">
      <defs>
       <path d="M 0 0 
L -9 0 
" id="m7d2c15b2b3" style="stroke:#000000;stroke-width:1.875;"/>
      </defs>
      <g>
       <use style="stroke:#000000;stroke-width:1.875;" x="78.315" xlink:href="#m7d2c15b2b3" y="360.06"/>
      </g>
     </g>
     <g id="text_10">
      <!-- −4 -->
      <g transform="translate(41.490391 366.328711)scale(0.165 -0.165)">
       <use xlink:href="#DejaVuSans-8722"/>
       <use x="83.789062" xlink:href="#DejaVuSans-52"/>
      </g>
     </g>
    </g>
    <g id="ytick_2">
     <g id="line2d_10">
      <g>
       <use style="stroke:#000000;stroke-width:1.875;" x="78.315" xlink:href="#m7d2c15b2b3" y="319.9825"/>
      </g>
     </g>
     <g id="text_11">
      <!-- −3 -->
      <g transform="translate(41.490391 326.251211)scale(0.165 -0.165)">
       <use xlink:href="#DejaVuSans-8722"/>
       <use x="83.789062" xlink:href="#DejaVuSans-51"/>
      </g>
     </g>
    </g>
    <g id="ytick_3">
     <g id="line2d_11">
      <g>
       <use style="stroke:#000000;stroke-width:1.875;" x="78.315" xlink:href="#m7d2c15b2b3" y="279.905"/>
      </g>
     </g>
     <g id="text_12">
      <!-- −2 -->
      <g transform="translate(41.490391 286.173711)scale(0.165 -0.165)">
       <use xlink:href="#DejaVuSans-8722"/>
       <use x="83.789062" xlink:href="#DejaVuSans-50"/>
      </g>
     </g>
    </g>
    <g id="ytick_4">
     <g id="line2d_12">
      <g>
       <use style="stroke:#000000;stroke-width:1.875;" x="78.315" xlink:href="#m7d2c15b2b3" y="239.8275"/>
      </g>
     </g>
     <g id="text_13">
      <!-- −1 -->
      <g transform="translate(41.490391 246.096211)scale(0.165 -0.165)">
       <use xlink:href="#DejaVuSans-8722"/>
       <use x="83.789062" xlink:href="#DejaVuSans-49"/>
      </g>
     </g>
    </g>
    <g id="ytick_5">
     <g id="line2d_13">
      <g>
       <use style="stroke:#000000;stroke-width:1.875;" x="78.315" xlink:href="#m7d2c15b2b3" y="199.75"/>
      </g>
     </g>
     <g id="text_14">
      <!-- 0 -->
      <g transform="translate(55.316875 206.018711)scale(0.165 -0.165)">
       <use xlink:href="#DejaVuSans-48"/>
      </g>
     </g>
    </g>
    <g id="ytick_6">
     <g id="line2d_14">
      <g>
       <use style="stroke:#000000;stroke-width:1.875;" x="78.315" xlink:href="#m7d2c15b2b3" y="159.6725"/>
      </g>
     </g>
     <g id="text_15">
      <!-- 1 -->
      <g transform="translate(55.316875 165.941211)scale(0.165 -0.165)">
       <use xlink:href="#DejaVuSans-49"/>
      </g>
     </g>
    </g>
    <g id="ytick_7">
     <g id="line2d_15">
      <g>
       <use style="stroke:#000000;stroke-width:1.875;" x="78.315" xlink:href="#m7d2c15b2b3" y="119.595"/>
      </g>
     </g>
     <g id="text_16">
      <!-- 2 -->
      <g transform="translate(55.316875 125.863711)scale(0.165 -0.165)">
       <use xlink:href="#DejaVuSans-50"/>
      </g>
     </g>
    </g>
    <g id="ytick_8">
     <g id="line2d_16">
      <g>
       <use style="stroke:#000000;stroke-width:1.875;" x="78.315" xlink:href="#m7d2c15b2b3" y="79.5175"/>
      </g>
     </g>
     <g id="text_17">
      <!-- 3 -->
      <g transform="translate(55.316875 85.786211)scale(0.165 -0.165)">
       <use xlink:href="#DejaVuSans-51"/>
      </g>
     </g>
    </g>
    <g id="ytick_9">
     <g id="line2d_17">
      <g>
       <use style="stroke:#000000;stroke-width:1.875;" x="78.315" xlink:href="#m7d2c15b2b3" y="39.44"/>
      </g>
     </g>
     <g id="text_18">
      <!-- 4 -->
      <g transform="translate(55.316875 45.708711)scale(0.165 -0.165)">
       <use xlink:href="#DejaVuSans-52"/>
      </g>
     </g>
    </g>
    <g id="text_19">
     <!-- $\Delta$ BPM -->
     <g transform="translate(33.746953 228.19)rotate(-90)scale(0.18 -0.18)">
      <defs>
       <path d="M 34.1875 63.1875 
L 14.15625 8.203125 
L 54.25 8.203125 
z
M 0.78125 0 
L 28.609375 72.90625 
L 39.796875 72.90625 
L 67.578125 0 
z
" id="DejaVuSans-916"/>
       <path d="M 19.671875 34.8125 
L 19.671875 8.109375 
L 35.5 8.109375 
Q 43.453125 8.109375 47.28125 11.40625 
Q 51.125 14.703125 51.125 21.484375 
Q 51.125 28.328125 47.28125 31.5625 
Q 43.453125 34.8125 35.5 34.8125 
z
M 19.671875 64.796875 
L 19.671875 42.828125 
L 34.28125 42.828125 
Q 41.5 42.828125 45.03125 45.53125 
Q 48.578125 48.25 48.578125 53.8125 
Q 48.578125 59.328125 45.03125 62.0625 
Q 41.5 64.796875 34.28125 64.796875 
z
M 9.8125 72.90625 
L 35.015625 72.90625 
Q 46.296875 72.90625 52.390625 68.21875 
Q 58.5 63.53125 58.5 54.890625 
Q 58.5 48.1875 55.375 44.234375 
Q 52.25 40.28125 46.1875 39.3125 
Q 53.46875 37.75 57.5 32.78125 
Q 61.53125 27.828125 61.53125 20.40625 
Q 61.53125 10.640625 54.890625 5.3125 
Q 48.25 0 35.984375 0 
L 9.8125 0 
z
" id="DejaVuSans-66"/>
       <path d="M 19.671875 64.796875 
L 19.671875 37.40625 
L 32.078125 37.40625 
Q 38.96875 37.40625 42.71875 40.96875 
Q 46.484375 44.53125 46.484375 51.125 
Q 46.484375 57.671875 42.71875 61.234375 
Q 38.96875 64.796875 32.078125 64.796875 
z
M 9.8125 72.90625 
L 32.078125 72.90625 
Q 44.34375 72.90625 50.609375 67.359375 
Q 56.890625 61.8125 56.890625 51.125 
Q 56.890625 40.328125 50.609375 34.8125 
Q 44.34375 29.296875 32.078125 29.296875 
L 19.671875 29.296875 
L 19.671875 0 
L 9.8125 0 
z
" id="DejaVuSans-80"/>
       <path d="M 9.8125 72.90625 
L 24.515625 72.90625 
L 43.109375 23.296875 
L 61.8125 72.90625 
L 76.515625 72.90625 
L 76.515625 0 
L 66.890625 0 
L 66.890625 64.015625 
L 48.09375 14.015625 
L 38.1875 14.015625 
L 19.390625 64.015625 
L 19.390625 0 
L 9.8125 0 
z
" id="DejaVuSans-77"/>
      </defs>
      <use transform="translate(0 0.09375)" xlink:href="#DejaVuSans-916"/>
      <use transform="translate(68.408203 0.09375)" xlink:href="#DejaVuSans-32"/>
      <use transform="translate(100.195312 0.09375)" xlink:href="#DejaVuSans-66"/>
      <use transform="translate(168.798828 0.09375)" xlink:href="#DejaVuSans-80"/>
      <use transform="translate(229.101562 0.09375)" xlink:href="#DejaVuSans-77"/>
     </g>
    </g>
   </g>
   <g id="line2d_18">
    <path clip-path="url(#p4f4493ad29)" d="M 78.315 263.644341 
L 91.830929 251.715626 
L 105.346857 239.764018 
L 118.862786 228.172382 
L 132.378714 214.509613 
L 145.894643 199.75 
L 159.410571 185.505885 
L 172.9265 174.63662 
L 186.442429 167.736923 
L 199.958357 163.963238 
L 213.474286 161.354187 
L 226.990214 160.071478 
L 240.506143 162.221892 
L 254.022071 168.022956 
L 267.538 176.705389 
L 281.053929 188.567909 
L 294.569857 199.76142 
L 308.085786 213.073452 
L 321.601714 229.591915 
L 335.117643 244.244933 
L 348.633571 256.985855 
L 362.1495 267.425355 
L 375.665429 274.574557 
L 389.181357 280.338767 
L 402.697286 283.187957 
L 416.213214 283.836334 
L 429.729143 281.112154 
L 443.245071 275.807745 
L 456.761 268.918903 
L 470.276929 258.845032 
L 483.792857 247.210253 
L 497.308786 233.744558 
L 510.824714 219.468855 
L 524.340643 205.329098 
L 537.856571 192.357178 
" style="fill:none;stroke:#b22222;stroke-linecap:square;stroke-width:2.25;"/>
   </g>
   <g id="line2d_19">
    <path clip-path="url(#p4f4493ad29)" d="M 78.315 260.420101 
L 91.830929 249.69831 
L 105.346857 238.757975 
L 118.862786 226.185631 
L 132.378714 213.054234 
L 145.894643 199.75 
L 159.410571 187.868466 
L 172.9265 177.641824 
L 186.442429 169.829008 
L 199.958357 164.76742 
L 213.474286 160.18692 
L 226.990214 159.72371 
L 240.506143 162.055717 
L 254.022071 167.369342 
L 267.538 173.758202 
L 281.053929 184.408215 
L 294.569857 199.16678 
L 308.085786 215.812122 
L 321.601714 231.950684 
L 335.117643 247.617998 
L 348.633571 260.0768 
L 362.1495 270.528694 
L 375.665429 278.998523 
L 389.181357 284.588854 
L 402.697286 287.18704 
L 416.213214 284.429686 
L 429.729143 279.906895 
L 443.245071 273.77393 
L 456.761 264.70353 
L 470.276929 253.650057 
L 483.792857 241.15396 
L 497.308786 227.474746 
L 510.824714 213.881873 
L 524.340643 200.496639 
L 537.856571 188.749192 
" style="fill:none;stroke:#b22222;stroke-dasharray:9,3.375;stroke-dashoffset:0;stroke-width:2.25;"/>
   </g>
   <g id="line2d_20">
    <path clip-path="url(#p4f4493ad29)" d="M 78.315 274.107687 
L 91.830929 260.117484 
L 105.346857 244.488331 
L 118.862786 229.246625 
L 132.378714 214.890925 
L 145.894643 199.75 
L 159.410571 185.63378 
L 172.9265 174.82761 
L 186.442429 164.525219 
L 199.958357 156.884088 
L 213.474286 153.576041 
L 226.990214 153.611018 
L 240.506143 156.087093 
L 254.022071 159.846687 
L 267.538 167.209533 
L 281.053929 176.587689 
L 294.569857 188.795724 
L 308.085786 205.46296 
L 321.601714 223.014084 
L 335.117643 240.091777 
L 348.633571 254.593963 
L 362.1495 265.880257 
L 375.665429 275.36306 
L 389.181357 282.139072 
L 402.697286 286.987447 
L 416.213214 288.019264 
L 429.729143 286.421401 
L 443.245071 281.287287 
L 456.761 271.174736 
L 470.276929 257.679637 
L 483.792857 244.919267 
L 497.308786 233.029851 
L 510.824714 220.283511 
L 524.340643 206.171604 
L 537.856571 192.135312 
" style="fill:none;stroke:#4682b4;stroke-linecap:square;stroke-width:2.25;"/>
   </g>
   <g id="line2d_21">
    <path clip-path="url(#p4f4493ad29)" d="M 78.315 269.371274 
L 91.830929 256.536468 
L 105.346857 243.490262 
L 118.862786 227.753384 
L 132.378714 214.168106 
L 145.894643 199.75 
L 159.410571 186.24989 
L 172.9265 175.449123 
L 186.442429 168.610836 
L 199.958357 163.568883 
L 213.474286 157.695593 
L 226.990214 154.556723 
L 240.506143 153.190229 
L 254.022071 155.838691 
L 267.538 162.878219 
L 281.053929 174.563351 
L 294.569857 190.789651 
L 308.085786 206.405415 
L 321.601714 222.183082 
L 335.117643 238.020921 
L 348.633571 253.754635 
L 362.1495 267.371236 
L 375.665429 278.002498 
L 389.181357 285.565187 
L 402.697286 289.185337 
L 416.213214 288.583904 
L 429.729143 284.86312 
L 443.245071 279.083846 
L 456.761 271.917222 
L 470.276929 261.715647 
L 483.792857 248.445515 
L 497.308786 234.020512 
L 510.824714 219.029086 
L 524.340643 207.121975 
L 537.856571 195.621806 
" style="fill:none;stroke:#4682b4;stroke-dasharray:9,3.375;stroke-dashoffset:0;stroke-width:2.25;"/>
   </g>
   <g id="line2d_22"/>
   <g id="line2d_23"/>
   <g id="line2d_24"/>
   <g id="line2d_25"/>
   <g id="line2d_26"/>
   <g id="line2d_27"/>
   <g id="line2d_28">
    <path clip-path="url(#p4f4493ad29)" d="M 78.315 199.75 
L 551.3725 199.75 
" style="fill:none;stroke:#808080;stroke-dasharray:8.325,3.6;stroke-dashoffset:0;stroke-width:2.25;"/>
   </g>
   <g id="line2d_29">
    <path clip-path="url(#p4f4493ad29)" d="M 145.894643 360.06 
L 145.894643 39.44 
" style="fill:none;stroke:#000000;stroke-dasharray:8.325,3.6;stroke-dashoffset:0;stroke-width:2.25;"/>
   </g>
   <g id="patch_3">
    <path d="M 78.315 360.06 
L 78.315 39.44 
" style="fill:none;stroke:#000000;stroke-linecap:square;stroke-linejoin:miter;stroke-width:1.875;"/>
   </g>
   <g id="patch_4">
    <path d="M 78.315 360.06 
L 551.3725 360.06 
" style="fill:none;stroke:#000000;stroke-linecap:square;stroke-linejoin:miter;stroke-width:1.875;"/>
   </g>
   <g id="text_20">
    <!-- Heart rate evoked response -->
    <g transform="translate(189.549688 33.44)scale(0.18 -0.18)">
     <defs>
      <path d="M 9.8125 72.90625 
L 19.671875 72.90625 
L 19.671875 43.015625 
L 55.515625 43.015625 
L 55.515625 72.90625 
L 65.375 72.90625 
L 65.375 0 
L 55.515625 0 
L 55.515625 34.71875 
L 19.671875 34.71875 
L 19.671875 0 
L 9.8125 0 
z
" id="DejaVuSans-72"/>
      <path d="M 34.28125 27.484375 
Q 23.390625 27.484375 19.1875 25 
Q 14.984375 22.515625 14.984375 16.5 
Q 14.984375 11.71875 18.140625 8.90625 
Q 21.296875 6.109375 26.703125 6.109375 
Q 34.1875 6.109375 38.703125 11.40625 
Q 43.21875 16.703125 43.21875 25.484375 
L 43.21875 27.484375 
z
M 52.203125 31.203125 
L 52.203125 0 
L 43.21875 0 
L 43.21875 8.296875 
Q 40.140625 3.328125 35.546875 0.953125 
Q 30.953125 -1.421875 24.3125 -1.421875 
Q 15.921875 -1.421875 10.953125 3.296875 
Q 6 8.015625 6 15.921875 
Q 6 25.140625 12.171875 29.828125 
Q 18.359375 34.515625 30.609375 34.515625 
L 43.21875 34.515625 
L 43.21875 35.40625 
Q 43.21875 41.609375 39.140625 45 
Q 35.0625 48.390625 27.6875 48.390625 
Q 23 48.390625 18.546875 47.265625 
Q 14.109375 46.140625 10.015625 43.890625 
L 10.015625 52.203125 
Q 14.9375 54.109375 19.578125 55.046875 
Q 24.21875 56 28.609375 56 
Q 40.484375 56 46.34375 49.84375 
Q 52.203125 43.703125 52.203125 31.203125 
z
" id="DejaVuSans-97"/>
      <path d="M 41.109375 46.296875 
Q 39.59375 47.171875 37.8125 47.578125 
Q 36.03125 48 33.890625 48 
Q 26.265625 48 22.1875 43.046875 
Q 18.109375 38.09375 18.109375 28.8125 
L 18.109375 0 
L 9.078125 0 
L 9.078125 54.6875 
L 18.109375 54.6875 
L 18.109375 46.1875 
Q 20.953125 51.171875 25.484375 53.578125 
Q 30.03125 56 36.53125 56 
Q 37.453125 56 38.578125 55.875 
Q 39.703125 55.765625 41.0625 55.515625 
z
" id="DejaVuSans-114"/>
      <path d="M 18.3125 70.21875 
L 18.3125 54.6875 
L 36.8125 54.6875 
L 36.8125 47.703125 
L 18.3125 47.703125 
L 18.3125 18.015625 
Q 18.3125 11.328125 20.140625 9.421875 
Q 21.96875 7.515625 27.59375 7.515625 
L 36.8125 7.515625 
L 36.8125 0 
L 27.59375 0 
Q 17.1875 0 13.234375 3.875 
Q 9.28125 7.765625 9.28125 18.015625 
L 9.28125 47.703125 
L 2.6875 47.703125 
L 2.6875 54.6875 
L 9.28125 54.6875 
L 9.28125 70.21875 
z
" id="DejaVuSans-116"/>
      <path d="M 2.984375 54.6875 
L 12.5 54.6875 
L 29.59375 8.796875 
L 46.6875 54.6875 
L 56.203125 54.6875 
L 35.6875 0 
L 23.484375 0 
z
" id="DejaVuSans-118"/>
      <path d="M 30.609375 48.390625 
Q 23.390625 48.390625 19.1875 42.75 
Q 14.984375 37.109375 14.984375 27.296875 
Q 14.984375 17.484375 19.15625 11.84375 
Q 23.34375 6.203125 30.609375 6.203125 
Q 37.796875 6.203125 41.984375 11.859375 
Q 46.1875 17.53125 46.1875 27.296875 
Q 46.1875 37.015625 41.984375 42.703125 
Q 37.796875 48.390625 30.609375 48.390625 
z
M 30.609375 56 
Q 42.328125 56 49.015625 48.375 
Q 55.71875 40.765625 55.71875 27.296875 
Q 55.71875 13.875 49.015625 6.21875 
Q 42.328125 -1.421875 30.609375 -1.421875 
Q 18.84375 -1.421875 12.171875 6.21875 
Q 5.515625 13.875 5.515625 27.296875 
Q 5.515625 40.765625 12.171875 48.375 
Q 18.84375 56 30.609375 56 
z
" id="DejaVuSans-111"/>
      <path d="M 9.078125 75.984375 
L 18.109375 75.984375 
L 18.109375 31.109375 
L 44.921875 54.6875 
L 56.390625 54.6875 
L 27.390625 29.109375 
L 57.625 0 
L 45.90625 0 
L 18.109375 26.703125 
L 18.109375 0 
L 9.078125 0 
z
" id="DejaVuSans-107"/>
      <path d="M 45.40625 46.390625 
L 45.40625 75.984375 
L 54.390625 75.984375 
L 54.390625 0 
L 45.40625 0 
L 45.40625 8.203125 
Q 42.578125 3.328125 38.25 0.953125 
Q 33.9375 -1.421875 27.875 -1.421875 
Q 17.96875 -1.421875 11.734375 6.484375 
Q 5.515625 14.40625 5.515625 27.296875 
Q 5.515625 40.1875 11.734375 48.09375 
Q 17.96875 56 27.875 56 
Q 33.9375 56 38.25 53.625 
Q 42.578125 51.265625 45.40625 46.390625 
z
M 14.796875 27.296875 
Q 14.796875 17.390625 18.875 11.75 
Q 22.953125 6.109375 30.078125 6.109375 
Q 37.203125 6.109375 41.296875 11.75 
Q 45.40625 17.390625 45.40625 27.296875 
Q 45.40625 37.203125 41.296875 42.84375 
Q 37.203125 48.484375 30.078125 48.484375 
Q 22.953125 48.484375 18.875 42.84375 
Q 14.796875 37.203125 14.796875 27.296875 
z
" id="DejaVuSans-100"/>
      <path d="M 18.109375 8.203125 
L 18.109375 -20.796875 
L 9.078125 -20.796875 
L 9.078125 54.6875 
L 18.109375 54.6875 
L 18.109375 46.390625 
Q 20.953125 51.265625 25.265625 53.625 
Q 29.59375 56 35.59375 56 
Q 45.5625 56 51.78125 48.09375 
Q 58.015625 40.1875 58.015625 27.296875 
Q 58.015625 14.40625 51.78125 6.484375 
Q 45.5625 -1.421875 35.59375 -1.421875 
Q 29.59375 -1.421875 25.265625 0.953125 
Q 20.953125 3.328125 18.109375 8.203125 
z
M 48.6875 27.296875 
Q 48.6875 37.203125 44.609375 42.84375 
Q 40.53125 48.484375 33.40625 48.484375 
Q 26.265625 48.484375 22.1875 42.84375 
Q 18.109375 37.203125 18.109375 27.296875 
Q 18.109375 17.390625 22.1875 11.75 
Q 26.265625 6.109375 33.40625 6.109375 
Q 40.53125 6.109375 44.609375 11.75 
Q 48.6875 17.390625 48.6875 27.296875 
z
" id="DejaVuSans-112"/>
      <path d="M 54.890625 33.015625 
L 54.890625 0 
L 45.90625 0 
L 45.90625 32.71875 
Q 45.90625 40.484375 42.875 44.328125 
Q 39.84375 48.1875 33.796875 48.1875 
Q 26.515625 48.1875 22.3125 43.546875 
Q 18.109375 38.921875 18.109375 30.90625 
L 18.109375 0 
L 9.078125 0 
L 9.078125 54.6875 
L 18.109375 54.6875 
L 18.109375 46.1875 
Q 21.34375 51.125 25.703125 53.5625 
Q 30.078125 56 35.796875 56 
Q 45.21875 56 50.046875 50.171875 
Q 54.890625 44.34375 54.890625 33.015625 
z
" id="DejaVuSans-110"/>
     </defs>
     <use xlink:href="#DejaVuSans-72"/>
     <use x="75.195312" xlink:href="#DejaVuSans-101"/>
     <use x="136.71875" xlink:href="#DejaVuSans-97"/>
     <use x="197.998047" xlink:href="#DejaVuSans-114"/>
     <use x="239.111328" xlink:href="#DejaVuSans-116"/>
     <use x="278.320312" xlink:href="#DejaVuSans-32"/>
     <use x="310.107422" xlink:href="#DejaVuSans-114"/>
     <use x="351.220703" xlink:href="#DejaVuSans-97"/>
     <use x="412.5" xlink:href="#DejaVuSans-116"/>
     <use x="451.708984" xlink:href="#DejaVuSans-101"/>
     <use x="513.232422" xlink:href="#DejaVuSans-32"/>
     <use x="545.019531" xlink:href="#DejaVuSans-101"/>
     <use x="606.542969" xlink:href="#DejaVuSans-118"/>
     <use x="665.722656" xlink:href="#DejaVuSans-111"/>
     <use x="726.904297" xlink:href="#DejaVuSans-107"/>
     <use x="781.189453" xlink:href="#DejaVuSans-101"/>
     <use x="842.712891" xlink:href="#DejaVuSans-100"/>
     <use x="906.189453" xlink:href="#DejaVuSans-32"/>
     <use x="937.976562" xlink:href="#DejaVuSans-114"/>
     <use x="976.839844" xlink:href="#DejaVuSans-101"/>
     <use x="1038.363281" xlink:href="#DejaVuSans-115"/>
     <use x="1090.462891" xlink:href="#DejaVuSans-112"/>
     <use x="1153.939453" xlink:href="#DejaVuSans-111"/>
     <use x="1215.121094" xlink:href="#DejaVuSans-110"/>
     <use x="1278.5" xlink:href="#DejaVuSans-115"/>
     <use x="1330.599609" xlink:href="#DejaVuSans-101"/>
    </g>
   </g>
   <g id="legend_1">
    <g id="patch_5">
     <path d="M 412.968438 197.953438 
L 539.8225 197.953438 
Q 543.1225 197.953438 543.1225 194.653438 
L 543.1225 50.99 
Q 543.1225 47.69 539.8225 47.69 
L 412.968438 47.69 
Q 409.668438 47.69 409.668438 50.99 
L 409.668438 194.653438 
Q 409.668438 197.953438 412.968438 197.953438 
z
" style="fill:#ffffff;opacity:0.8;stroke:#cccccc;stroke-linejoin:miter;stroke-width:1.5;"/>
    </g>
    <g id="line2d_30">
     <path d="M 416.268438 61.052422 
L 449.268438 61.052422 
" style="fill:none;"/>
    </g>
    <g id="line2d_31"/>
    <g id="text_21">
     <!-- Valence -->
     <g transform="translate(462.468438 66.827422)scale(0.165 -0.165)">
      <defs>
       <path d="M 28.609375 0 
L 0.78125 72.90625 
L 11.078125 72.90625 
L 34.1875 11.53125 
L 57.328125 72.90625 
L 67.578125 72.90625 
L 39.796875 0 
z
" id="DejaVuSans-86"/>
       <path d="M 9.421875 75.984375 
L 18.40625 75.984375 
L 18.40625 0 
L 9.421875 0 
z
" id="DejaVuSans-108"/>
       <path d="M 48.78125 52.59375 
L 48.78125 44.1875 
Q 44.96875 46.296875 41.140625 47.34375 
Q 37.3125 48.390625 33.40625 48.390625 
Q 24.65625 48.390625 19.8125 42.84375 
Q 14.984375 37.3125 14.984375 27.296875 
Q 14.984375 17.28125 19.8125 11.734375 
Q 24.65625 6.203125 33.40625 6.203125 
Q 37.3125 6.203125 41.140625 7.25 
Q 44.96875 8.296875 48.78125 10.40625 
L 48.78125 2.09375 
Q 45.015625 0.34375 40.984375 -0.53125 
Q 36.96875 -1.421875 32.421875 -1.421875 
Q 20.0625 -1.421875 12.78125 6.34375 
Q 5.515625 14.109375 5.515625 27.296875 
Q 5.515625 40.671875 12.859375 48.328125 
Q 20.21875 56 33.015625 56 
Q 37.15625 56 41.109375 55.140625 
Q 45.0625 54.296875 48.78125 52.59375 
z
" id="DejaVuSans-99"/>
      </defs>
      <use xlink:href="#DejaVuSans-86"/>
      <use x="60.658203" xlink:href="#DejaVuSans-97"/>
      <use x="121.9375" xlink:href="#DejaVuSans-108"/>
      <use x="149.720703" xlink:href="#DejaVuSans-101"/>
      <use x="211.244141" xlink:href="#DejaVuSans-110"/>
      <use x="274.623047" xlink:href="#DejaVuSans-99"/>
      <use x="329.603516" xlink:href="#DejaVuSans-101"/>
     </g>
    </g>
    <g id="line2d_32">
     <path d="M 416.268438 85.271328 
L 449.268438 85.271328 
" style="fill:none;stroke:#b22222;stroke-linecap:square;stroke-width:2.25;"/>
    </g>
    <g id="line2d_33"/>
    <g id="text_22">
     <!-- Positive -->
     <g transform="translate(462.468438 91.046328)scale(0.165 -0.165)">
      <use xlink:href="#DejaVuSans-80"/>
      <use x="56.677734" xlink:href="#DejaVuSans-111"/>
      <use x="117.859375" xlink:href="#DejaVuSans-115"/>
      <use x="169.958984" xlink:href="#DejaVuSans-105"/>
      <use x="197.742188" xlink:href="#DejaVuSans-116"/>
      <use x="236.951172" xlink:href="#DejaVuSans-105"/>
      <use x="264.734375" xlink:href="#DejaVuSans-118"/>
      <use x="323.914062" xlink:href="#DejaVuSans-101"/>
     </g>
    </g>
    <g id="line2d_34">
     <path d="M 416.268438 109.490234 
L 449.268438 109.490234 
" style="fill:none;stroke:#4682b4;stroke-linecap:square;stroke-width:2.25;"/>
    </g>
    <g id="line2d_35"/>
    <g id="text_23">
     <!-- Negative -->
     <g transform="translate(462.468438 115.265234)scale(0.165 -0.165)">
      <defs>
       <path d="M 9.8125 72.90625 
L 23.09375 72.90625 
L 55.421875 11.921875 
L 55.421875 72.90625 
L 64.984375 72.90625 
L 64.984375 0 
L 51.703125 0 
L 19.390625 60.984375 
L 19.390625 0 
L 9.8125 0 
z
" id="DejaVuSans-78"/>
       <path d="M 45.40625 27.984375 
Q 45.40625 37.75 41.375 43.109375 
Q 37.359375 48.484375 30.078125 48.484375 
Q 22.859375 48.484375 18.828125 43.109375 
Q 14.796875 37.75 14.796875 27.984375 
Q 14.796875 18.265625 18.828125 12.890625 
Q 22.859375 7.515625 30.078125 7.515625 
Q 37.359375 7.515625 41.375 12.890625 
Q 45.40625 18.265625 45.40625 27.984375 
z
M 54.390625 6.78125 
Q 54.390625 -7.171875 48.1875 -13.984375 
Q 42 -20.796875 29.203125 -20.796875 
Q 24.46875 -20.796875 20.265625 -20.09375 
Q 16.0625 -19.390625 12.109375 -17.921875 
L 12.109375 -9.1875 
Q 16.0625 -11.328125 19.921875 -12.34375 
Q 23.78125 -13.375 27.78125 -13.375 
Q 36.625 -13.375 41.015625 -8.765625 
Q 45.40625 -4.15625 45.40625 5.171875 
L 45.40625 9.625 
Q 42.625 4.78125 38.28125 2.390625 
Q 33.9375 0 27.875 0 
Q 17.828125 0 11.671875 7.65625 
Q 5.515625 15.328125 5.515625 27.984375 
Q 5.515625 40.671875 11.671875 48.328125 
Q 17.828125 56 27.875 56 
Q 33.9375 56 38.28125 53.609375 
Q 42.625 51.21875 45.40625 46.390625 
L 45.40625 54.6875 
L 54.390625 54.6875 
z
" id="DejaVuSans-103"/>
      </defs>
      <use xlink:href="#DejaVuSans-78"/>
      <use x="74.804688" xlink:href="#DejaVuSans-101"/>
      <use x="136.328125" xlink:href="#DejaVuSans-103"/>
      <use x="199.804688" xlink:href="#DejaVuSans-97"/>
      <use x="261.083984" xlink:href="#DejaVuSans-116"/>
      <use x="300.292969" xlink:href="#DejaVuSans-105"/>
      <use x="328.076172" xlink:href="#DejaVuSans-118"/>
      <use x="387.255859" xlink:href="#DejaVuSans-101"/>
     </g>
    </g>
    <g id="line2d_36">
     <path d="M 416.268438 133.709141 
L 449.268438 133.709141 
" style="fill:none;"/>
    </g>
    <g id="line2d_37"/>
    <g id="text_24">
     <!-- Arousal -->
     <g transform="translate(462.468438 139.484141)scale(0.165 -0.165)">
      <defs>
       <path d="M 34.1875 63.1875 
L 20.796875 26.90625 
L 47.609375 26.90625 
z
M 28.609375 72.90625 
L 39.796875 72.90625 
L 67.578125 0 
L 57.328125 0 
L 50.6875 18.703125 
L 17.828125 18.703125 
L 11.1875 0 
L 0.78125 0 
z
" id="DejaVuSans-65"/>
       <path d="M 8.5 21.578125 
L 8.5 54.6875 
L 17.484375 54.6875 
L 17.484375 21.921875 
Q 17.484375 14.15625 20.5 10.265625 
Q 23.53125 6.390625 29.59375 6.390625 
Q 36.859375 6.390625 41.078125 11.03125 
Q 45.3125 15.671875 45.3125 23.6875 
L 45.3125 54.6875 
L 54.296875 54.6875 
L 54.296875 0 
L 45.3125 0 
L 45.3125 8.40625 
Q 42.046875 3.421875 37.71875 1 
Q 33.40625 -1.421875 27.6875 -1.421875 
Q 18.265625 -1.421875 13.375 4.4375 
Q 8.5 10.296875 8.5 21.578125 
z
M 31.109375 56 
z
" id="DejaVuSans-117"/>
      </defs>
      <use xlink:href="#DejaVuSans-65"/>
      <use x="68.408203" xlink:href="#DejaVuSans-114"/>
      <use x="107.271484" xlink:href="#DejaVuSans-111"/>
      <use x="168.453125" xlink:href="#DejaVuSans-117"/>
      <use x="231.832031" xlink:href="#DejaVuSans-115"/>
      <use x="283.931641" xlink:href="#DejaVuSans-97"/>
      <use x="345.210938" xlink:href="#DejaVuSans-108"/>
     </g>
    </g>
    <g id="line2d_38">
     <path d="M 416.268438 157.928047 
L 449.268438 157.928047 
" style="fill:none;stroke:#333333;stroke-linecap:square;stroke-width:2.25;"/>
    </g>
    <g id="line2d_39"/>
    <g id="text_25">
     <!-- High -->
     <g transform="translate(462.468438 163.703047)scale(0.165 -0.165)">
      <defs>
       <path d="M 54.890625 33.015625 
L 54.890625 0 
L 45.90625 0 
L 45.90625 32.71875 
Q 45.90625 40.484375 42.875 44.328125 
Q 39.84375 48.1875 33.796875 48.1875 
Q 26.515625 48.1875 22.3125 43.546875 
Q 18.109375 38.921875 18.109375 30.90625 
L 18.109375 0 
L 9.078125 0 
L 9.078125 75.984375 
L 18.109375 75.984375 
L 18.109375 46.1875 
Q 21.34375 51.125 25.703125 53.5625 
Q 30.078125 56 35.796875 56 
Q 45.21875 56 50.046875 50.171875 
Q 54.890625 44.34375 54.890625 33.015625 
z
" id="DejaVuSans-104"/>
      </defs>
      <use xlink:href="#DejaVuSans-72"/>
      <use x="75.195312" xlink:href="#DejaVuSans-105"/>
      <use x="102.978516" xlink:href="#DejaVuSans-103"/>
      <use x="166.455078" xlink:href="#DejaVuSans-104"/>
     </g>
    </g>
    <g id="line2d_40">
     <path d="M 416.268438 182.146953 
L 449.268438 182.146953 
" style="fill:none;stroke:#333333;stroke-dasharray:9,3.375;stroke-dashoffset:0;stroke-width:2.25;"/>
    </g>
    <g id="line2d_41"/>
    <g id="text_26">
     <!-- Low -->
     <g transform="translate(462.468438 187.921953)scale(0.165 -0.165)">
      <defs>
       <path d="M 9.8125 72.90625 
L 19.671875 72.90625 
L 19.671875 8.296875 
L 55.171875 8.296875 
L 55.171875 0 
L 9.8125 0 
z
" id="DejaVuSans-76"/>
       <path d="M 4.203125 54.6875 
L 13.1875 54.6875 
L 24.421875 12.015625 
L 35.59375 54.6875 
L 46.1875 54.6875 
L 57.421875 12.015625 
L 68.609375 54.6875 
L 77.59375 54.6875 
L 63.28125 0 
L 52.6875 0 
L 40.921875 44.828125 
L 29.109375 0 
L 18.5 0 
z
" id="DejaVuSans-119"/>
      </defs>
      <use xlink:href="#DejaVuSans-76"/>
      <use x="53.962891" xlink:href="#DejaVuSans-111"/>
      <use x="115.144531" xlink:href="#DejaVuSans-119"/>
     </g>
    </g>
   </g>
  </g>
 </g>
 <defs>
  <clipPath id="p4f4493ad29">
   <rect height="320.62" width="473.0575" x="78.315" y="39.44"/>
  </clipPath>
 </defs>
</svg>
